HIERARCHY
ROOT root
{
	OFFSET 0.000000 0.000000 0.000000
	CHANNELS 6 Xposition Yposition Zposition Zrotation Yrotation Xrotation
	JOINT lhip
	{
		OFFSET 0.058581 -0.082280 -0.017664
		CHANNELS 3 Zrotation Yrotation Xrotation
		JOINT lknee
		{
			OFFSET 0.043451 -0.386469 0.008037
			CHANNELS 3 Zrotation Yrotation Xrotation
			JOINT lankle
			{
				OFFSET -0.014790 -0.426874 -0.037428
				CHANNELS 3 Zrotation Yrotation Xrotation
				JOINT ltoe
				{
					OFFSET 0.041054 -0.060286 0.122042
					CHANNELS 3 Zrotation Yrotation Xrotation
					End Site
					{
						OFFSET 0.000000 0.000000 0.000000
					}
				}
			}
		}
	}
	JOINT rhip
	{
		OFFSET -0.060310 -0.090513 -0.013543
		CHANNELS 3 Zrotation Yrotation Xrotation
		JOINT rknee
		{
			OFFSET -0.043257 -0.383688 -0.004843
			CHANNELS 3 Zrotation Yrotation Xrotation
			JOINT rankle
			{
				OFFSET 0.019056 -0.420046 -0.034562
				CHANNELS 3 Zrotation Yrotation Xrotation
				JOINT rtoe
				{
					OFFSET -0.034840 -0.062106 0.130323
					CHANNELS 3 Zrotation Yrotation Xrotation
					End Site
					{
						OFFSET 0.000000 0.000000 0.000000
					}
				}
			}
		}
	}
	JOINT lowerback
	{
		OFFSET 0.004439 0.124404 -0.038385
		CHANNELS 3 Zrotation Yrotation Xrotation
		JOINT upperback
		{
			OFFSET 0.004488 0.137956 0.026820
			CHANNELS 3 Zrotation Yrotation Xrotation
			JOINT chest
			{
				OFFSET -0.002265 0.056032 0.002855
				CHANNELS 3 Zrotation Yrotation Xrotation
				JOINT lowerneck
				{
					OFFSET -0.013390 0.211636 -0.033468
					CHANNELS 3 Zrotation Yrotation Xrotation
					JOINT upperneck
					{
						OFFSET 0.010113 0.088937 0.050410
						CHANNELS 3 Zrotation Yrotation Xrotation
						End Site
						{
							OFFSET 0.000000 0.000000 0.000000
						}
					}
				}
				JOINT lclavicle
				{
					OFFSET 0.071702 0.114000 -0.018898
					CHANNELS 3 Zrotation Yrotation Xrotation
					JOINT lshoulder
					{
						OFFSET 0.122921 0.045205 -0.019046
						CHANNELS 3 Zrotation Yrotation Xrotation
						JOINT lelbow
						{
							OFFSET 0.255332 -0.015649 -0.022946
							CHANNELS 3 Zrotation Yrotation Xrotation
							JOINT lwrist
							{
								OFFSET 0.265709 0.012698 -0.007375
								CHANNELS 3 Zrotation Yrotation Xrotation
								End Site
								{
									OFFSET 0.000000 0.000000 0.000000
								}
							}
						}
					}
				}
				JOINT rclavicle
				{
					OFFSET -0.082954 0.112472 -0.023707
					CHANNELS 3 Zrotation Yrotation Xrotation
					JOINT rshoulder
					{
						OFFSET -0.113228 0.046853 -0.008472
						CHANNELS 3 Zrotation Yrotation Xrotation
						JOINT relbow
						{
							OFFSET -0.260127 -0.014369 -0.031269
							CHANNELS 3 Zrotation Yrotation Xrotation
							JOINT rwrist
							{
								OFFSET -0.269108 0.006794 -0.006027
								CHANNELS 3 Zrotation Yrotation Xrotation
								End Site
								{
									OFFSET 0.000000 0.000000 0.000000
								}
							}
						}
					}
				}
			}
		}
	}
}
MOTION
Frames: 5
Frame Time: 0.033333
-0.050829 1.118168 0.989411 -14.555721 -2.978922 82.018757 -2.129640 1.393150 11.358576 0.940808 -7.818006 1.556354 1.106134 22.550098 -11.080734 0.000000 -0.000000 0.000000 -2.324503 -3.810556 8.870726 -2.744258 2.022113 -0.670140 5.610211 -14.855786 -12.169670 0.000000 -0.000000 0.000000 -3.962349 3.329870 5.990701 1.207294 -3.978981 3.994483 0.816583 4.097424 2.497972 -4.338287 11.904125 3.580116 6.019673 -2.542179 2.286052 4.702601 -6.027345 -12.513683 5.370019 -15.799024 -20.004220 26.546114 -27.842176 -44.093809 27.225572 -2.283813 -6.251318 19.258024 10.834363 2.811210 51.119366 2.649980 18.972698 -9.369258 35.840080 -3.164067 1.211034 2.415397 -8.651601 
-0.050837 1.118736 0.989672 -14.375820 -2.987152 82.089760 -2.154444 1.392234 11.180308 0.954807 -8.175518 1.591814 1.199002 22.788354 -10.850077 0.000000 -0.000000 0.000000 -2.331832 -3.956334 8.693760 -2.697989 2.184685 -0.545168 5.493917 -15.142637 -12.211317 0.000000 -0.000000 0.000000 -3.977371 3.620026 5.908224 1.320977 -4.329508 3.886282 0.998911 4.061928 2.575719 -4.874874 12.119146 3.994271 6.430158 -2.545044 1.781090 5.188914 -7.455456 -13.454661 6.806777 -16.427082 -22.578135 20.945459 -21.237936 -46.351689 26.064761 1.114984 -6.019966 19.062094 11.106924 2.682535 51.144210 2.284215 19.328350 -9.447878 36.129920 -3.401580 0.842797 1.833297 -8.928717 
-0.050814 1.119179 0.989873 -14.023152 -3.015640 82.145333 -2.189829 1.295337 11.008245 0.974729 -8.330598 1.638974 1.254128 22.696866 -10.691026 0.000000 -0.000000 0.000000 -2.362578 -4.062413 8.591009 -2.680588 1.966206 -0.446278 5.429526 -15.200495 -12.262434 0.000000 -0.000000 0.000000 -4.016337 3.750614 5.744620 1.351148 -4.411817 3.982743 0.974220 4.104365 2.566096 -4.988785 12.343359 4.151794 6.586106 -2.733088 1.585631 5.402809 -7.854977 -13.742161 6.735270 -17.206729 -22.701890 19.191324 -20.101114 -45.517930 24.890368 2.116388 -5.805455 19.040374 11.100518 2.739396 51.284017 2.143191 19.429494 -9.533172 36.160709 -3.229607 0.744583 1.627670 -9.365524 
-0.050839 1.119478 0.989840 -13.466037 -3.061512 82.145571 -2.229950 1.048841 10.894213 0.966688 -8.405069 1.679893 1.332968 22.436074 -10.598797 0.000000 -0.000000 0.000000 -2.431693 -4.189639 8.625702 -2.673140 1.502693 -0.414125 5.447690 -15.133677 -12.323766 0.000000 -0.000000 0.000000 -4.087461 3.775221 5.547444 1.274503 -4.256802 4.324101 0.742220 4.191956 2.486713 -4.688376 12.431598 3.957613 6.641719 -3.065391 1.632184 5.349587 -7.407907 -13.372099 5.453338 -18.195644 -20.384109 20.941373 -24.469211 -42.079998 24.494639 1.370835 -6.051712 19.251205 10.897095 2.935921 51.418173 2.123455 19.391736 -9.690138 36.063686 -3.110326 0.838347 1.761520 -9.646235 
-0.051022 1.119591 0.989670 -12.760521 -3.076207 82.078496 -2.195501 0.779618 10.852012 0.914145 -8.591582 1.720310 1.406253 22.138809 -10.586836 0.000000 -0.000000 0.000000 -2.473159 -4.417427 8.802736 -2.690485 0.993473 -0.467364 5.515804 -15.032542 -12.375328 0.000000 -0.000000 0.000000 -4.237030 3.816511 5.390807 1.135898 -3.963243 4.732262 0.486342 4.233521 2.411571 -4.151503 12.271800 3.603155 6.826521 -3.470389 1.797775 5.274297 -6.710502 -12.649992 3.958899 -18.837706 -16.975284 25.232848 -32.588190 -38.679787 25.013968 0.016193 -6.352917 19.503199 10.769244 3.180246 51.581242 1.964969 19.160600 -9.849328 35.945419 -3.155156 1.217483 1.996663 -9.697524 
